<svg width="148" height="51" viewBox="0 0 148 51" fill="none" xmlns="http://www.w3.org/2000/svg">
<g filter="url(#filter0_d_490_485)">
<g clip-path="url(#clip0_490_485)">
<path d="M96.561 20.6297C96.5407 13.7569 96.5205 6.88383 96.5004 0.0105896H89.2893C89.3067 6.88345 89.3253 13.7565 89.3449 20.6297H96.561Z" fill="#F6FFFF"/>
<path d="M74.1332 5.45515C76.4567 5.46909 77.0916 6.24402 77.0938 8.01631C77.0938 9.70052 76.4266 10.4554 74.1387 10.4297C70.2468 10.3868 68.3048 10.3784 64.4157 10.3901V13.7613C68.2064 16.4842 70.1924 17.9153 73.833 20.6298H82.7877C79.9844 18.4706 78.2997 17.2218 75.234 14.98L75.6605 14.9879C80.5954 15.0821 84.2532 12.9809 84.2421 8.1306C84.2304 3.09749 82.1133 0.0117188 75.6405 0.0117188H64.3128V5.43619C68.2397 5.42839 70.204 5.43285 74.1332 5.45515Z" fill="#F6FFFF"/>
<path d="M106.453 12.9803C108.366 13.8723 109.322 14.3339 111.234 15.2839C112.605 15.9668 113.131 16.4591 113.132 16.9006V17.2045C113.132 17.539 112.993 17.8305 111.764 17.7096C107.919 17.331 105.994 17.1621 102.142 16.8638C102.147 18.4014 102.149 19.4423 102.153 20.6314H120.252C120.321 20.2289 120.355 19.8211 120.352 19.4127V17.2624C120.352 14.1232 118.705 12.0587 115.439 10.4554C113.543 9.53048 112.593 9.0828 110.694 8.21143C109.604 7.6963 109.287 7.4549 109.286 7.05796V6.76082C109.286 6.39677 109.46 6.13753 110.515 6.17265C114.452 6.30478 116.419 6.37725 120.356 6.53893V0.0161743H110.681C104.983 0.0161743 102.101 1.29285 102.112 5.31243C102.112 6.0015 102.115 6.34603 102.116 7.0351C102.12 9.36211 102.97 11.3529 106.453 12.9803Z" fill="#F6FFFF"/>
<path d="M43.2898 21.2073C43.2976 18.4337 43.3021 16.8911 43.3099 13.9687C46.8593 13.8137 48.634 13.7513 52.1851 13.656C52.1801 16.5516 52.1773 18.0602 52.1712 20.8433C54.4956 20.7723 56.9048 20.7184 59.399 20.6816C59.4068 13.7909 59.4136 6.90055 59.4196 0.0105896H52.2084C52.2012 3.26862 52.1984 4.89819 52.1923 8.15622C48.6434 8.21197 46.8693 8.25044 43.321 8.34299C43.3299 5.01025 43.3338 3.34333 43.3443 0.0105896H36.1371C36.1156 7.22353 36.095 14.4367 36.0754 21.65C38.3553 21.4879 40.7601 21.3404 43.2898 21.2073Z" fill="#F6FFFF"/>
<path d="M18.2233 23.434C21.6737 22.9757 25.7569 22.5113 30.4816 22.096C30.4872 20.1793 30.4905 19.0035 30.4955 16.8878C27.9508 17.0857 26.6792 17.1939 24.1373 17.428C20.872 17.728 19.7528 16.4334 19.7589 12.1753C19.7645 7.95163 20.5756 6.22839 24.1606 6.11355C26.7059 6.0316 27.9786 5.99369 30.5244 5.924C30.5306 3.55908 30.5339 2.37663 30.5411 0.0111545H23.4701C15.5195 -0.291568 12.6239 5.52372 12.6011 12.7093C12.585 17.9582 14.2463 22.1467 18.2233 23.434Z" fill="#F6FFFF"/>
<path d="M128.953 20.6297H66.4767C24.398 20.6297 4 25.9159 4 25.9159C45.5321 21.489 87.4152 21.489 128.947 25.9159H132.394V20.6297H128.953Z" fill="#00C1C6"/>
<path d="M52.016 29.5313C52.434 29.4863 52.8542 29.592 53.2015 29.8294C53.5488 30.0668 53.8005 30.4205 53.9114 30.827H54.9889C54.7137 29.3329 53.6189 28.5117 52.016 28.5117C51.5951 28.4991 51.1759 28.5714 50.7834 28.7243C50.3908 28.8771 50.0328 29.1075 49.7306 29.4016C49.4285 29.6957 49.1883 30.0476 49.0242 30.4366C48.8602 30.8255 48.7756 31.2435 48.7756 31.6657C48.7756 32.088 48.8602 32.506 49.0242 32.8949C49.1883 33.2838 49.4285 33.6358 49.7306 33.9299C50.0328 34.224 50.3908 34.4543 50.7834 34.6072C51.1759 34.76 51.5951 34.8323 52.016 34.8198C53.6189 34.8198 54.7137 33.9986 54.9889 32.5039H53.9114C53.8006 32.9106 53.549 33.2643 53.2016 33.5019C52.8543 33.7394 52.434 33.8451 52.016 33.8001C51.7336 33.8047 51.4531 33.7529 51.1909 33.6477C50.9286 33.5425 50.6898 33.386 50.4885 33.1873C50.2872 32.9887 50.1273 32.7518 50.0181 32.4906C49.909 32.2294 49.8528 31.949 49.8528 31.6657C49.8528 31.3825 49.909 31.1021 50.0181 30.8409C50.1273 30.5796 50.2872 30.3428 50.4885 30.1441C50.6898 29.9455 50.9286 29.789 51.1909 29.6838C51.4531 29.5786 51.7336 29.5268 52.016 29.5313Z" fill="#F6FFFF"/>
<path d="M62.8422 28.5117C62.2237 28.5284 61.6237 28.7275 61.1174 29.0843C60.6111 29.441 60.221 29.9395 59.9957 30.5174C59.7705 31.0954 59.7202 31.727 59.8511 32.3335C59.9819 32.9399 60.2882 33.4942 60.7316 33.927C61.175 34.3598 61.7358 34.652 62.3439 34.7669C62.952 34.8818 63.5804 34.8144 64.1505 34.5731C64.7206 34.3318 65.2071 33.9273 65.5491 33.4103C65.8912 32.8932 66.0736 32.2865 66.0736 31.666C66.0908 31.2398 66.0183 30.8147 65.8608 30.4185C65.7034 30.0222 65.4644 29.6636 65.1596 29.3661C64.8548 29.0685 64.4909 28.8387 64.0916 28.6915C63.6924 28.5443 63.2667 28.483 62.8422 28.5117V28.5117ZM62.8422 33.8001C62.4205 33.8033 62.0073 33.6809 61.6551 33.4482C61.3028 33.2156 61.0275 32.8833 60.8639 32.4935C60.7003 32.1037 60.6559 31.674 60.7362 31.2588C60.8166 30.8437 61.0181 30.4618 61.3152 30.1616C61.6124 29.8615 61.9917 29.6566 62.4051 29.573C62.8186 29.4894 63.2475 29.5308 63.6374 29.692C64.0273 29.8531 64.3607 30.1268 64.5953 30.4783C64.8299 30.8297 64.9551 31.2431 64.955 31.666C64.9762 31.9504 64.9362 32.236 64.8377 32.5035C64.7393 32.771 64.5846 33.0142 64.3843 33.2165C64.1839 33.4189 63.9426 33.5757 63.6765 33.6764C63.4105 33.7771 63.126 33.8193 62.8422 33.8001V33.8001Z" fill="#F6FFFF"/>
<path d="M75.4825 32.1326C75.4825 33.2209 74.9644 33.8001 73.8018 33.8001C72.6292 33.8001 72.1127 33.2209 72.1127 32.1326V28.641H71.0007V32.1232C71.0007 33.8431 71.8709 34.8198 73.8012 34.8198C75.7316 34.8198 76.5934 33.8431 76.5934 32.1232V28.641H75.4814L75.4825 32.1326Z" fill="#F6FFFF"/>
<path d="M87.5018 30.7155C87.5018 29.5397 86.8474 28.641 85.2356 28.641H81.9353V34.6905H83.0473V32.7805H85.3974L86.4488 34.6905H87.5691L86.3965 32.572C86.7505 32.4163 87.0472 32.1538 87.2453 31.821C87.4434 31.4882 87.5331 31.1018 87.5018 30.7155V30.7155ZM85.0811 31.7954H83.0467V29.6261H85.0811C85.9512 29.6261 86.3988 29.9372 86.3988 30.7155C86.3988 31.4938 85.9534 31.7954 85.0811 31.7954V31.7954Z" fill="#F6FFFF"/>
<path d="M96.3548 31.1737L95.3902 31.0868C94.6118 31.0087 94.2009 30.808 94.2009 30.2739C94.2009 29.6953 94.6919 29.4277 95.7021 29.4277C96.6067 29.4277 97.1671 29.644 97.3144 30.3263H98.3402C98.2452 28.7798 96.9792 28.5117 95.7549 28.5117C93.8646 28.5117 93.0828 29.1595 93.0828 30.2739C93.0828 31.3544 93.799 31.8729 95.16 32.0022L96.1341 32.0886C96.9436 32.1667 97.3144 32.3562 97.3144 32.9354C97.3144 33.6357 96.7201 33.9033 95.6949 33.9033C94.8147 33.9033 94.1431 33.7132 94.0052 33.0046H92.98C93.0828 34.6029 94.4711 34.8192 95.5992 34.8192H95.6076C97.633 34.8192 98.4431 34.119 98.4431 32.9182C98.4409 31.7781 97.7509 31.3031 96.3548 31.1737Z" fill="#F6FFFF"/>
<path d="M104.122 34.6905H109.207V33.7137H105.234V32.1477H109.034V31.2669H105.234V29.6161H109.207V28.641H104.122V34.6905Z" fill="#F6FFFF"/>
<path d="M118.266 31.1737L117.301 31.0868C116.525 31.0087 116.112 30.808 116.112 30.2739C116.112 29.6953 116.603 29.4277 117.613 29.4277C118.518 29.4277 119.079 29.644 119.226 30.3263H120.251C120.157 28.7798 118.889 28.5117 117.665 28.5117C115.778 28.5117 114.996 29.1595 114.996 30.2739C114.996 31.3544 115.711 31.8729 117.074 32.0022L118.048 32.0886C118.858 32.1667 119.229 32.3562 119.229 32.9354C119.229 33.6357 118.633 33.9033 117.607 33.9033C116.729 33.9033 116.057 33.7132 115.919 33.0046H114.894C114.996 34.6029 116.384 34.8192 117.513 34.8192H117.522C119.547 34.8192 120.357 34.119 120.357 32.9182C120.352 31.7781 119.663 31.3031 118.266 31.1737Z" fill="#F6FFFF"/>
<path d="M130.536 22.2799C130.184 22.568 129.791 22.8002 129.369 22.9685V23.5817C129.791 23.75 130.184 23.9822 130.536 24.2702C131.773 25.3026 133.316 25.8939 134.924 25.9511L135.091 25.9555L140.497 24.937C141.718 24.7065 142.898 24.2956 143.999 23.7177V22.8335C142.898 22.2557 141.718 21.8448 140.497 21.6143L135.091 20.5957L134.924 20.6002C133.316 20.6571 131.773 21.248 130.536 22.2799Z" fill="#F6FFFF"/>
<path d="M136.651 20.8828L136.644 20.8866H136.651V20.8828Z" fill="#F6FFFF"/>
<path d="M135.958 24.5194C136.552 24.5193 137.144 24.4514 137.723 24.317L140.419 23.691C140.487 23.6771 140.55 23.6469 140.603 23.6029V23.6029C140.666 23.5517 140.712 23.4839 140.737 23.4074C140.763 23.3309 140.766 23.2487 140.746 23.1704C140.727 23.0922 140.686 23.021 140.628 22.9651C140.57 22.9092 140.498 22.871 140.419 22.8547L137.723 22.2286C137.145 22.0942 136.552 22.0263 135.958 22.0263V22.0263V24.5194V24.5194Z" fill="#2D0091"/>
<path d="M133.807 22.3519L132.932 22.7577C132.826 22.7952 132.733 22.865 132.668 22.9573C132.603 23.0496 132.568 23.16 132.568 23.2731C132.568 23.3863 132.603 23.4966 132.668 23.5889C132.733 23.6813 132.826 23.751 132.932 23.7885L133.807 24.1944C134.269 24.4085 134.772 24.5194 135.282 24.5194V22.0263C134.772 22.0263 134.269 22.1376 133.807 22.3524L133.807 22.3519Z" fill="#2D0091"/>
<path d="M124.365 21.3545C127.253 21.9834 130.248 21.9069 133.1 21.1315L135.089 20.5913L129.726 19.4517L124.365 21.3545Z" fill="#FF4D1D"/>
<path d="M124.365 25.1917L129.726 27.0923L135.089 25.9527L133.1 25.4125C130.248 24.6371 127.253 24.5606 124.365 25.1895V25.1917Z" fill="#FF4D1D"/>
<path d="M132.635 16.1547C132.557 16.9253 132.764 17.6978 133.216 18.326C133.668 18.9542 134.334 19.3946 135.088 19.5638L135.954 16.8794C136.096 16.5057 136.09 16.092 135.937 15.7226L133.324 9.36154L132.635 16.1547Z" fill="#FF4D1D"/>
<path d="M125.929 3.54791L128.685 14.7107C128.948 15.7757 129.495 16.7484 130.269 17.5239L131.503 18.7615L135.085 19.5655L125.929 3.54791Z" fill="#F6FFFF"/>
<path d="M135.088 26.9819C134.334 27.1511 133.668 27.5916 133.216 28.2199C132.764 28.8482 132.557 29.6208 132.635 30.3916L133.319 37.1847L135.933 30.8231C136.011 30.6317 136.052 30.4268 136.052 30.2199C136.051 30.0307 136.017 29.8432 135.95 29.6663V29.6663L135.083 26.9819H135.088Z" fill="#FF4D1D"/>
<path d="M125.929 42.9994L128.685 31.8366C128.948 30.7717 129.495 29.7989 130.269 29.0235L131.503 27.7858L135.085 26.9819L125.929 42.9994Z" fill="#F6FFFF"/>
</g>
</g>
<defs>
<filter id="filter0_d_490_485" x="0" y="0" width="148" height="51" filterUnits="userSpaceOnUse" color-interpolation-filters="sRGB">
<feFlood flood-opacity="0" result="BackgroundImageFix"/>
<feColorMatrix in="SourceAlpha" type="matrix" values="0 0 0 0 0 0 0 0 0 0 0 0 0 0 0 0 0 0 127 0" result="hardAlpha"/>
<feOffset dy="4"/>
<feGaussianBlur stdDeviation="2"/>
<feComposite in2="hardAlpha" operator="out"/>
<feColorMatrix type="matrix" values="0 0 0 0 0 0 0 0 0 0 0 0 0 0 0 0 0 0 0.25 0"/>
<feBlend mode="normal" in2="BackgroundImageFix" result="effect1_dropShadow_490_485"/>
<feBlend mode="normal" in="SourceGraphic" in2="effect1_dropShadow_490_485" result="shape"/>
</filter>
<clipPath id="clip0_490_485">
<rect width="140" height="43" fill="white" transform="translate(4)"/>
</clipPath>
</defs>
</svg>
